<mxfile modified="2023-11-16T07:44:33.405Z" host="app.diagrams.net" agent="Mozilla/5.0 (Macintosh; Intel Mac OS X 10_15_7) AppleWebKit/537.36 (KHTML, like Gecko) Chrome/119.0.0.0 Safari/537.36" etag="1hxuwZ64U_6pdFjrS1rE" version="22.1.2" type="github">
  <diagram id="Ht1M8jgEwFfnCIfOTk4-" name="Page-1">
    <mxGraphModel dx="2074" dy="1124" grid="1" gridSize="10" guides="1" tooltips="1" connect="1" arrows="1" fold="1" page="1" pageScale="1" pageWidth="1169" pageHeight="827" math="0" shadow="0">
      <root>
        <mxCell id="0" />
        <mxCell id="1" parent="0" />
        <mxCell id="Dd83YgnReYusMFgJrQL0-27" value="" style="group" vertex="1" connectable="0" parent="1">
          <mxGeometry x="700" y="350" width="280" height="230" as="geometry" />
        </mxCell>
        <mxCell id="Dd83YgnReYusMFgJrQL0-14" value="" style="group" vertex="1" connectable="0" parent="Dd83YgnReYusMFgJrQL0-27">
          <mxGeometry y="30" width="280" height="200" as="geometry" />
        </mxCell>
        <mxCell id="Dd83YgnReYusMFgJrQL0-15" value="" style="rounded=1;whiteSpace=wrap;html=1;labelBackgroundColor=default;" vertex="1" parent="Dd83YgnReYusMFgJrQL0-14">
          <mxGeometry width="280" height="200" as="geometry" />
        </mxCell>
        <mxCell id="Dd83YgnReYusMFgJrQL0-16" value="Frontend" style="outlineConnect=0;gradientColor=none;fontColor=#545B64;strokeColor=none;fillColor=#879196;dashed=0;verticalLabelPosition=bottom;verticalAlign=top;align=center;html=1;fontSize=12;fontStyle=0;aspect=fixed;shape=mxgraph.aws4.illustration_desktop;pointerEvents=1;labelBackgroundColor=#ffffff;" vertex="1" parent="Dd83YgnReYusMFgJrQL0-14">
          <mxGeometry x="179.5" y="63.14" width="81" height="73.71" as="geometry" />
        </mxCell>
        <mxCell id="Dd83YgnReYusMFgJrQL0-20" style="rounded=0;orthogonalLoop=1;jettySize=auto;html=1;startArrow=block;dashed=1;dashPattern=1 1;strokeWidth=2;" edge="1" parent="Dd83YgnReYusMFgJrQL0-14" source="Dd83YgnReYusMFgJrQL0-17" target="Dd83YgnReYusMFgJrQL0-18">
          <mxGeometry relative="1" as="geometry" />
        </mxCell>
        <mxCell id="Dd83YgnReYusMFgJrQL0-21" style="rounded=0;orthogonalLoop=1;jettySize=auto;html=1;dashed=1;dashPattern=1 1;startArrow=classic;startFill=1;strokeWidth=2;" edge="1" parent="Dd83YgnReYusMFgJrQL0-14" source="Dd83YgnReYusMFgJrQL0-17" target="Dd83YgnReYusMFgJrQL0-16">
          <mxGeometry relative="1" as="geometry" />
        </mxCell>
        <mxCell id="Dd83YgnReYusMFgJrQL0-17" value="API" style="outlineConnect=0;fontColor=#232F3E;gradientColor=#945DF2;gradientDirection=north;fillColor=#5A30B5;strokeColor=#ffffff;dashed=0;verticalLabelPosition=bottom;verticalAlign=top;align=center;html=1;fontSize=12;fontStyle=0;aspect=fixed;shape=mxgraph.aws4.resourceIcon;resIcon=mxgraph.aws4.api_gateway;labelBackgroundColor=#ffffff;" vertex="1" parent="Dd83YgnReYusMFgJrQL0-14">
          <mxGeometry x="50" y="14" width="50" height="50" as="geometry" />
        </mxCell>
        <mxCell id="Dd83YgnReYusMFgJrQL0-18" value="DB" style="outlineConnect=0;fontColor=#232F3E;gradientColor=#F54749;gradientDirection=north;fillColor=#C7131F;strokeColor=#ffffff;dashed=0;verticalLabelPosition=bottom;verticalAlign=top;align=center;html=1;fontSize=12;fontStyle=0;aspect=fixed;shape=mxgraph.aws4.resourceIcon;resIcon=mxgraph.aws4.cloud_directory;labelBackgroundColor=#ffffff;" vertex="1" parent="Dd83YgnReYusMFgJrQL0-14">
          <mxGeometry x="55" y="120" width="40" height="40" as="geometry" />
        </mxCell>
        <mxCell id="Dd83YgnReYusMFgJrQL0-26" value="&lt;b&gt;&lt;font style=&quot;font-size: 16px;&quot;&gt;Connector B&lt;/font&gt;&lt;/b&gt;" style="text;html=1;align=center;verticalAlign=middle;resizable=0;points=[];autosize=1;strokeColor=none;fillColor=none;" vertex="1" parent="Dd83YgnReYusMFgJrQL0-27">
          <mxGeometry width="120" height="30" as="geometry" />
        </mxCell>
        <mxCell id="Dd83YgnReYusMFgJrQL0-25" value="" style="group" vertex="1" connectable="0" parent="1">
          <mxGeometry x="200" y="350" width="280" height="230" as="geometry" />
        </mxCell>
        <mxCell id="Dd83YgnReYusMFgJrQL0-13" value="" style="group" vertex="1" connectable="0" parent="Dd83YgnReYusMFgJrQL0-25">
          <mxGeometry y="30" width="280" height="200" as="geometry" />
        </mxCell>
        <mxCell id="Dd83YgnReYusMFgJrQL0-4" value="" style="rounded=1;whiteSpace=wrap;html=1;labelBackgroundColor=default;" vertex="1" parent="Dd83YgnReYusMFgJrQL0-13">
          <mxGeometry width="280" height="200" as="geometry" />
        </mxCell>
        <mxCell id="Dd83YgnReYusMFgJrQL0-23" style="rounded=0;orthogonalLoop=1;jettySize=auto;html=1;startArrow=classic;startFill=1;dashed=1;dashPattern=1 1;strokeWidth=2;" edge="1" parent="Dd83YgnReYusMFgJrQL0-13" source="UEzPUAAOIrF-is8g5C7q-109" target="UEzPUAAOIrF-is8g5C7q-114">
          <mxGeometry relative="1" as="geometry" />
        </mxCell>
        <mxCell id="UEzPUAAOIrF-is8g5C7q-109" value="Frontend" style="outlineConnect=0;gradientColor=none;fontColor=#545B64;strokeColor=none;fillColor=#879196;dashed=0;verticalLabelPosition=bottom;verticalAlign=top;align=center;html=1;fontSize=12;fontStyle=0;aspect=fixed;shape=mxgraph.aws4.illustration_desktop;pointerEvents=1;labelBackgroundColor=#ffffff;" parent="Dd83YgnReYusMFgJrQL0-13" vertex="1">
          <mxGeometry x="39" y="60" width="81" height="73.71" as="geometry" />
        </mxCell>
        <mxCell id="Dd83YgnReYusMFgJrQL0-22" style="rounded=0;orthogonalLoop=1;jettySize=auto;html=1;dashed=1;dashPattern=1 1;strokeWidth=2;startArrow=classic;startFill=1;" edge="1" parent="Dd83YgnReYusMFgJrQL0-13" source="UEzPUAAOIrF-is8g5C7q-114" target="Dd83YgnReYusMFgJrQL0-12">
          <mxGeometry relative="1" as="geometry" />
        </mxCell>
        <mxCell id="UEzPUAAOIrF-is8g5C7q-114" value="API" style="outlineConnect=0;fontColor=#232F3E;gradientColor=#945DF2;gradientDirection=north;fillColor=#5A30B5;strokeColor=#ffffff;dashed=0;verticalLabelPosition=bottom;verticalAlign=top;align=center;html=1;fontSize=12;fontStyle=0;aspect=fixed;shape=mxgraph.aws4.resourceIcon;resIcon=mxgraph.aws4.api_gateway;labelBackgroundColor=#ffffff;" parent="Dd83YgnReYusMFgJrQL0-13" vertex="1">
          <mxGeometry x="190" y="15.5" width="50" height="50" as="geometry" />
        </mxCell>
        <mxCell id="Dd83YgnReYusMFgJrQL0-12" value="DB" style="outlineConnect=0;fontColor=#232F3E;gradientColor=#F54749;gradientDirection=north;fillColor=#C7131F;strokeColor=#ffffff;dashed=0;verticalLabelPosition=bottom;verticalAlign=top;align=center;html=1;fontSize=12;fontStyle=0;aspect=fixed;shape=mxgraph.aws4.resourceIcon;resIcon=mxgraph.aws4.cloud_directory;labelBackgroundColor=#ffffff;" vertex="1" parent="Dd83YgnReYusMFgJrQL0-13">
          <mxGeometry x="200" y="129.5" width="40" height="40" as="geometry" />
        </mxCell>
        <mxCell id="Dd83YgnReYusMFgJrQL0-24" value="&lt;b&gt;&lt;font style=&quot;font-size: 16px;&quot;&gt;Connector A&lt;/font&gt;&lt;/b&gt;" style="text;html=1;align=center;verticalAlign=middle;resizable=0;points=[];autosize=1;strokeColor=none;fillColor=none;" vertex="1" parent="Dd83YgnReYusMFgJrQL0-25">
          <mxGeometry x="10" width="120" height="30" as="geometry" />
        </mxCell>
        <mxCell id="Dd83YgnReYusMFgJrQL0-36" style="rounded=0;orthogonalLoop=1;jettySize=auto;html=1;exitX=1;exitY=0.5;exitDx=0;exitDy=0;dashed=1;startArrow=blockThin;startFill=0;endArrow=block;endFill=0;strokeWidth=2;" edge="1" parent="1" source="Dd83YgnReYusMFgJrQL0-34" target="UEzPUAAOIrF-is8g5C7q-109">
          <mxGeometry relative="1" as="geometry" />
        </mxCell>
        <mxCell id="Dd83YgnReYusMFgJrQL0-40" value="" style="group" vertex="1" connectable="0" parent="1">
          <mxGeometry x="25.5" y="160" width="120" height="610" as="geometry" />
        </mxCell>
        <mxCell id="Dd83YgnReYusMFgJrQL0-35" value="&lt;b&gt;&lt;font style=&quot;font-size: 16px;&quot;&gt;A Local Data&amp;nbsp;&lt;/font&gt;&lt;/b&gt;" style="text;html=1;align=center;verticalAlign=middle;resizable=0;points=[];autosize=1;strokeColor=none;fillColor=none;" vertex="1" parent="Dd83YgnReYusMFgJrQL0-40">
          <mxGeometry width="120" height="30" as="geometry" />
        </mxCell>
        <mxCell id="Dd83YgnReYusMFgJrQL0-39" value="" style="group" vertex="1" connectable="0" parent="Dd83YgnReYusMFgJrQL0-40">
          <mxGeometry x="4.5" y="40" width="110" height="570" as="geometry" />
        </mxCell>
        <mxCell id="Dd83YgnReYusMFgJrQL0-34" value="" style="rounded=1;whiteSpace=wrap;html=1;" vertex="1" parent="Dd83YgnReYusMFgJrQL0-39">
          <mxGeometry x="-1.25" width="110" height="570" as="geometry" />
        </mxCell>
        <mxCell id="Dd83YgnReYusMFgJrQL0-28" value="Flash Data" style="outlineConnect=0;fontColor=#232F3E;gradientColor=#4D72F3;gradientDirection=north;fillColor=#3334B9;strokeColor=#ffffff;dashed=0;verticalLabelPosition=bottom;verticalAlign=top;align=center;html=1;fontSize=12;fontStyle=0;aspect=fixed;shape=mxgraph.aws4.resourceIcon;resIcon=mxgraph.aws4.dynamodb;labelBackgroundColor=#ffffff;spacingTop=5;" vertex="1" parent="Dd83YgnReYusMFgJrQL0-39">
          <mxGeometry x="28.5" y="280" width="50.5" height="50.5" as="geometry" />
        </mxCell>
        <mxCell id="Dd83YgnReYusMFgJrQL0-29" value="Cloud Data" style="outlineConnect=0;fontColor=#232F3E;gradientColor=#F34482;gradientDirection=north;fillColor=#BC1356;strokeColor=#ffffff;dashed=0;verticalLabelPosition=bottom;verticalAlign=top;align=center;html=1;fontSize=12;fontStyle=0;aspect=fixed;shape=mxgraph.aws4.resourceIcon;resIcon=mxgraph.aws4.cloudwatch;labelBackgroundColor=#ffffff;" vertex="1" parent="Dd83YgnReYusMFgJrQL0-39">
          <mxGeometry x="26" y="370" width="55.5" height="55.5" as="geometry" />
        </mxCell>
        <mxCell id="Dd83YgnReYusMFgJrQL0-30" value="File Data" style="sketch=0;outlineConnect=0;fontColor=#232F3E;gradientColor=none;fillColor=#ED7100;strokeColor=none;dashed=0;verticalLabelPosition=bottom;verticalAlign=top;align=center;html=1;fontSize=12;fontStyle=0;aspect=fixed;pointerEvents=1;shape=mxgraph.aws4.ecs_service;" vertex="1" parent="Dd83YgnReYusMFgJrQL0-39">
          <mxGeometry x="26" y="460" width="48.75" height="60" as="geometry" />
        </mxCell>
        <mxCell id="Dd83YgnReYusMFgJrQL0-31" value="Cache Data" style="sketch=0;outlineConnect=0;fontColor=#232F3E;gradientColor=none;fillColor=#C925D1;strokeColor=none;dashed=0;verticalLabelPosition=bottom;verticalAlign=top;align=center;html=1;fontSize=12;fontStyle=0;aspect=fixed;pointerEvents=1;shape=mxgraph.aws4.cache_node;" vertex="1" parent="Dd83YgnReYusMFgJrQL0-39">
          <mxGeometry x="30" y="100.5" width="50.5" height="50.5" as="geometry" />
        </mxCell>
        <mxCell id="Dd83YgnReYusMFgJrQL0-32" value="Database table" style="sketch=0;outlineConnect=0;fontColor=#232F3E;gradientColor=none;fillColor=#80FF00;strokeColor=none;dashed=0;verticalLabelPosition=bottom;verticalAlign=top;align=center;html=1;fontSize=12;fontStyle=0;aspect=fixed;pointerEvents=1;shape=mxgraph.aws4.table;" vertex="1" parent="Dd83YgnReYusMFgJrQL0-39">
          <mxGeometry x="30" y="190" width="47.5" height="47.5" as="geometry" />
        </mxCell>
        <mxCell id="Dd83YgnReYusMFgJrQL0-38" value="" style="dashed=0;outlineConnect=0;html=1;align=center;labelPosition=center;verticalLabelPosition=bottom;verticalAlign=top;shape=mxgraph.weblogos.json" vertex="1" parent="Dd83YgnReYusMFgJrQL0-40">
          <mxGeometry x="35" y="60" width="50" height="50" as="geometry" />
        </mxCell>
        <mxCell id="Dd83YgnReYusMFgJrQL0-41" value="" style="group" vertex="1" connectable="0" parent="1">
          <mxGeometry x="1020" y="160" width="120" height="610" as="geometry" />
        </mxCell>
        <mxCell id="Dd83YgnReYusMFgJrQL0-42" value="&lt;b&gt;&lt;font style=&quot;font-size: 16px;&quot;&gt;B Local Data&amp;nbsp;&lt;/font&gt;&lt;/b&gt;" style="text;html=1;align=center;verticalAlign=middle;resizable=0;points=[];autosize=1;strokeColor=none;fillColor=none;" vertex="1" parent="Dd83YgnReYusMFgJrQL0-41">
          <mxGeometry width="120" height="30" as="geometry" />
        </mxCell>
        <mxCell id="Dd83YgnReYusMFgJrQL0-43" value="" style="group" vertex="1" connectable="0" parent="Dd83YgnReYusMFgJrQL0-41">
          <mxGeometry x="4.5" y="40" width="110" height="570" as="geometry" />
        </mxCell>
        <mxCell id="Dd83YgnReYusMFgJrQL0-44" value="" style="rounded=1;whiteSpace=wrap;html=1;" vertex="1" parent="Dd83YgnReYusMFgJrQL0-43">
          <mxGeometry x="-1.25" width="110" height="570" as="geometry" />
        </mxCell>
        <mxCell id="Dd83YgnReYusMFgJrQL0-45" value="Flash Data" style="outlineConnect=0;fontColor=#232F3E;gradientColor=#4D72F3;gradientDirection=north;fillColor=#3334B9;strokeColor=#ffffff;dashed=0;verticalLabelPosition=bottom;verticalAlign=top;align=center;html=1;fontSize=12;fontStyle=0;aspect=fixed;shape=mxgraph.aws4.resourceIcon;resIcon=mxgraph.aws4.dynamodb;labelBackgroundColor=#ffffff;spacingTop=5;" vertex="1" parent="Dd83YgnReYusMFgJrQL0-43">
          <mxGeometry x="28.5" y="280" width="50.5" height="50.5" as="geometry" />
        </mxCell>
        <mxCell id="Dd83YgnReYusMFgJrQL0-46" value="Cloud Data" style="outlineConnect=0;fontColor=#232F3E;gradientColor=#F34482;gradientDirection=north;fillColor=#BC1356;strokeColor=#ffffff;dashed=0;verticalLabelPosition=bottom;verticalAlign=top;align=center;html=1;fontSize=12;fontStyle=0;aspect=fixed;shape=mxgraph.aws4.resourceIcon;resIcon=mxgraph.aws4.cloudwatch;labelBackgroundColor=#ffffff;" vertex="1" parent="Dd83YgnReYusMFgJrQL0-43">
          <mxGeometry x="26" y="370" width="55.5" height="55.5" as="geometry" />
        </mxCell>
        <mxCell id="Dd83YgnReYusMFgJrQL0-47" value="File Data" style="sketch=0;outlineConnect=0;fontColor=#232F3E;gradientColor=none;fillColor=#ED7100;strokeColor=none;dashed=0;verticalLabelPosition=bottom;verticalAlign=top;align=center;html=1;fontSize=12;fontStyle=0;aspect=fixed;pointerEvents=1;shape=mxgraph.aws4.ecs_service;" vertex="1" parent="Dd83YgnReYusMFgJrQL0-43">
          <mxGeometry x="26" y="460" width="48.75" height="60" as="geometry" />
        </mxCell>
        <mxCell id="Dd83YgnReYusMFgJrQL0-48" value="Cache Data" style="sketch=0;outlineConnect=0;fontColor=#232F3E;gradientColor=none;fillColor=#C925D1;strokeColor=none;dashed=0;verticalLabelPosition=bottom;verticalAlign=top;align=center;html=1;fontSize=12;fontStyle=0;aspect=fixed;pointerEvents=1;shape=mxgraph.aws4.cache_node;" vertex="1" parent="Dd83YgnReYusMFgJrQL0-43">
          <mxGeometry x="30" y="100.5" width="50.5" height="50.5" as="geometry" />
        </mxCell>
        <mxCell id="Dd83YgnReYusMFgJrQL0-49" value="Database table" style="sketch=0;outlineConnect=0;fontColor=#232F3E;gradientColor=none;fillColor=#80FF00;strokeColor=none;dashed=0;verticalLabelPosition=bottom;verticalAlign=top;align=center;html=1;fontSize=12;fontStyle=0;aspect=fixed;pointerEvents=1;shape=mxgraph.aws4.table;" vertex="1" parent="Dd83YgnReYusMFgJrQL0-43">
          <mxGeometry x="30" y="190" width="47.5" height="47.5" as="geometry" />
        </mxCell>
        <mxCell id="Dd83YgnReYusMFgJrQL0-50" value="" style="dashed=0;outlineConnect=0;html=1;align=center;labelPosition=center;verticalLabelPosition=bottom;verticalAlign=top;shape=mxgraph.weblogos.json" vertex="1" parent="Dd83YgnReYusMFgJrQL0-41">
          <mxGeometry x="35" y="60" width="50" height="50" as="geometry" />
        </mxCell>
        <mxCell id="Dd83YgnReYusMFgJrQL0-51" style="rounded=0;orthogonalLoop=1;jettySize=auto;html=1;entryX=0;entryY=0.5;entryDx=0;entryDy=0;dashed=1;startArrow=blockThin;startFill=0;endArrow=block;endFill=0;strokeWidth=2;" edge="1" parent="1" source="Dd83YgnReYusMFgJrQL0-16" target="Dd83YgnReYusMFgJrQL0-44">
          <mxGeometry relative="1" as="geometry">
            <mxPoint x="980" y="475" as="sourcePoint" />
            <mxPoint x="1051" y="470" as="targetPoint" />
          </mxGeometry>
        </mxCell>
        <mxCell id="Dd83YgnReYusMFgJrQL0-19" style="rounded=0;orthogonalLoop=1;jettySize=auto;html=1;shape=flexArrow;dashed=1;startArrow=block;" edge="1" parent="1" source="UEzPUAAOIrF-is8g5C7q-114" target="Dd83YgnReYusMFgJrQL0-17">
          <mxGeometry relative="1" as="geometry" />
        </mxCell>
        <mxCell id="Dd83YgnReYusMFgJrQL0-52" value="&lt;font style=&quot;font-size: 22px;&quot;&gt;A&lt;/font&gt;" style="swimlane;whiteSpace=wrap;html=1;" vertex="1" parent="1">
          <mxGeometry x="20" y="100" width="480" height="680" as="geometry" />
        </mxCell>
        <mxCell id="Dd83YgnReYusMFgJrQL0-53" value="&lt;font style=&quot;font-size: 22px;&quot;&gt;B&lt;/font&gt;" style="swimlane;whiteSpace=wrap;html=1;" vertex="1" parent="1">
          <mxGeometry x="676" y="100" width="480" height="680" as="geometry" />
        </mxCell>
      </root>
    </mxGraphModel>
  </diagram>
</mxfile>
